<svg width="256" height="256" viewBox="0 0 256 256" fill="none" xmlns="http://www.w3.org/2000/svg">
<rect width="256" height="256" rx="18" fill="black"/>
<path d="M48.5 198.5V57.5H82.25V64.25H56V191.75H82.25V198.5H48.5Z" fill="white"/>
<path d="M173.574 198.5V191.75H199.824V64.25H173.574V57.5H207.324V198.5H173.574Z" fill="white"/>
<path d="M93.5 170.1V85.5H101.6V170.1H93.5Z" fill="white"/>
<path d="M128.115 136.8C125.835 136.8 124.005 136.14 122.625 134.82C121.305 133.5 120.645 131.73 120.645 129.51C120.645 127.17 121.305 125.31 122.625 123.93C124.005 122.55 125.835 121.86 128.115 121.86C130.395 121.86 132.195 122.55 133.515 123.93C134.895 125.31 135.585 127.17 135.585 129.51C135.585 131.73 134.895 133.5 133.515 134.82C132.195 136.14 130.395 136.8 128.115 136.8Z" fill="white"/>
<path d="M154.63 170.1V85.5H162.73V170.1H154.63Z" fill="white"/>
</svg>
